<?xml version="1.0" encoding="utf-8"?>
<!-- Generator: Adobe Illustrator 16.0.0, SVG Export Plug-In . SVG Version: 6.00 Build 0)  -->
<!DOCTYPE svg PUBLIC "-//W3C//DTD SVG 1.1//EN" "http://www.w3.org/Graphics/SVG/1.1/DTD/svg11.dtd">
<svg version="1.1" id="Layer_1" xmlns="http://www.w3.org/2000/svg" xmlns:xlink="http://www.w3.org/1999/xlink" x="0px" y="0px"
	 width="59.588px" height="59.58px" viewBox="0 0 59.588 59.58" enable-background="new 0 0 59.588 59.58" xml:space="preserve">
<g id="contract_1_">
	<g>
		<path fill="#FF5300" d="M34.437,21.404H8.376c-0.515,0-0.931,0.413-0.931,0.931c0,0.512,0.416,0.931,0.931,0.931h26.06
			c0.516,0,0.932-0.419,0.932-0.931C35.368,21.817,34.952,21.404,34.437,21.404z"/>
		<path fill="#FF5300" d="M35.368,30.71c0-0.517-0.416-0.93-0.932-0.93H8.376c-0.515,0-0.931,0.413-0.931,0.93
			c0,0.514,0.416,0.932,0.931,0.932h26.06C34.952,31.642,35.368,31.224,35.368,30.71z"/>
		<path fill="#FF5300" d="M8.376,15.319h8.376c0.515,0,0.931-0.413,0.931-0.931c0-0.512-0.416-0.931-0.931-0.931H8.376
			c-0.515,0-0.931,0.418-0.931,0.931C7.446,14.906,7.862,15.319,8.376,15.319z"/>
		<path fill="#FF5300" d="M25.485,57.705H1.861V1.858h25.625v12.53c0,0.518,0.418,0.931,0.931,0.931h12.537v14.774
			c0.575-0.364,1.21-0.592,1.861-0.679V14.389c0-0.245-0.1-0.483-0.273-0.657L29.077,0.27c-0.084-0.087-0.186-0.157-0.3-0.203
			c-0.113-0.047-0.232-0.07-0.361-0.07H0.931C0.416-0.003,0,0.41,0,0.928v57.706c0,0.512,0.416,0.93,0.931,0.93h24.583
			C25.287,58.966,25.282,58.309,25.485,57.705z M29.347,3.173l10.292,10.285H29.347V3.173z"/>
		<path fill="#FF5300" d="M57.933,28.745c-2.111-2.111-5.788-2.111-7.899,0l-3.95,3.945l-0.657-0.657
			c-1.088-1.088-2.859-1.088-3.949,0l-5.265,5.264c-0.364,0.367-0.364,0.954,0,1.32c0.363,0.361,0.954,0.361,1.313,0l5.268-5.265
			c0.363-0.366,0.952-0.366,1.318,0l0.657,0.658L28.972,49.802c-1.056,1.054-1.635,2.456-1.635,3.951
			c0,1.175,0.373,2.286,1.042,3.229l-0.995,0.994c-0.363,0.361-0.363,0.949,0,1.315c0.184,0.18,0.422,0.271,0.658,0.271
			c0.238,0,0.477-0.092,0.661-0.271l0.994-0.995c0.937,0.67,2.051,1.041,3.226,1.041c1.491,0,2.895-0.582,3.946-1.633l21.064-21.065
			c1.053-1.053,1.635-2.456,1.635-3.949C59.567,31.2,58.985,29.798,57.933,28.745z M48.72,32.69l5.264,5.264l-1.315,1.32L47.4,34.01
			L48.72,32.69z M51.352,40.588L36.868,55.068l-5.264-5.266l14.479-14.478L51.352,40.588z M30.29,56.388
			c-0.704-0.704-1.091-1.64-1.091-2.635c0-0.996,0.387-1.932,1.091-2.636l5.265,5.271l0,0C34.146,57.791,31.694,57.791,30.29,56.388
			z M56.615,35.325l-1.316,1.314l-5.266-5.265l1.314-1.314c0.704-0.704,1.64-1.094,2.636-1.094c0.994,0,1.928,0.39,2.632,1.094
			c0.703,0.703,1.091,1.635,1.091,2.63C57.706,33.684,57.318,34.622,56.615,35.325z"/>
		<path fill="#FF5300" d="M21.407,47.465c-1.647,0-2.606-2.897-2.81-3.909c-0.073-0.355-0.343-0.636-0.692-0.723
			c-0.349-0.08-0.721,0.041-0.949,0.326l-2.722,3.403c-0.8-2.089-2.135-5.952-2.135-8.405c0-0.518-0.415-0.932-0.931-0.932
			c-0.515,0-0.93,0.414-0.93,0.932c0,3.485-2.688,9.808-2.717,9.872C7.318,48.5,7.539,49.047,8.01,49.25
			c0.119,0.053,0.244,0.076,0.366,0.076c0.361,0,0.705-0.209,0.855-0.563c0.072-0.17,1.128-2.647,1.937-5.435
			c0.809,2.787,1.865,5.265,1.938,5.435c0.128,0.295,0.407,0.51,0.73,0.551c0.323,0.046,0.649-0.08,0.853-0.336l2.626-3.287
			c0.631,1.575,1.879,3.636,4.093,3.636h0.931c0.515,0,0.931-0.42,0.931-0.931c0-0.518-0.416-0.931-0.931-0.931H21.407z"/>
	</g>
</g>
</svg>
