<?xml version="1.0" encoding="utf-8"?>
<!-- Generator: Adobe Illustrator 16.0.0, SVG Export Plug-In . SVG Version: 6.00 Build 0)  -->
<!DOCTYPE svg PUBLIC "-//W3C//DTD SVG 1.1//EN" "http://www.w3.org/Graphics/SVG/1.1/DTD/svg11.dtd">
<svg version="1.1" id="Layer_1" xmlns="http://www.w3.org/2000/svg" xmlns:xlink="http://www.w3.org/1999/xlink" x="0px" y="0px"
	 width="59.588px" height="59.58px" viewBox="0 0 59.588 59.58" enable-background="new 0 0 59.588 59.58" xml:space="preserve">
<g id="insurance">
	<path fill="#FF5300" d="M30.695,1.908V0.931C30.695,0.416,30.279,0,29.765,0s-0.931,0.416-0.931,0.931v0.977
		c0.311-0.009,0.617-0.046,0.931-0.046C30.079,1.861,30.385,1.899,30.695,1.908z"/>
	<path fill="#FF5300" d="M28.834,32.633V53.98c0,0.998-0.39,1.935-1.091,2.636c-1.451,1.451-3.813,1.451-5.268,0
		c-1.448-1.452-1.448-3.817,0-5.268c0.367-0.363,0.367-0.952,0-1.314c-0.36-0.364-0.951-0.364-1.314,0
		c-2.179,2.175-2.179,5.721,0,7.896c1.087,1.091,2.519,1.633,3.949,1.633c1.431,0,2.859-0.542,3.95-1.633
		c1.053-1.054,1.634-2.452,1.634-3.946V32.633c-0.298-0.027-0.59-0.058-0.931-0.058C29.425,32.576,29.131,32.606,28.834,32.633z"/>
	<path fill="#FF5300" d="M59.55,33.242C59.404,16.939,46.099,3.723,29.765,3.723c-16.422,0-29.784,13.362-29.784,29.783
		c0,0.466,0.343,0.855,0.803,0.921c0.454,0.065,0.899-0.226,1.023-0.675c0.035-0.123,0.888-3.038,3.66-3.038
		c2.786,0,3.693,2.929,3.729,3.051c0.032,0.108,0.116,0.175,0.18,0.263c0.041,0.055,0.055,0.112,0.108,0.155
		c0.16,0.147,0.357,0.248,0.584,0.255c0.003,0,0.006-0.007,0.012-0.007s0.006,0.007,0.011,0.007c0.026,0,0.041-0.03,0.07-0.03
		c0.209-0.025,0.385-0.099,0.524-0.217c0.052-0.047,0.075-0.1,0.117-0.155c0.058-0.075,0.133-0.131,0.168-0.227
		c0.011-0.028,1.117-3.095,5.128-3.095c3.987,0,5.206,2.995,5.256,3.121c0.032,0.087,0.108,0.14,0.163,0.212
		c0.041,0.053,0.062,0.1,0.11,0.144c0.157,0.137,0.343,0.236,0.564,0.24c0.003,0,0.006-0.002,0.012-0.002
		c0.009,0,0.012,0.009,0.02,0.009c0.038,0,0.062-0.039,0.099-0.041c0.175-0.027,0.33-0.088,0.466-0.192
		c0.061-0.05,0.096-0.099,0.143-0.163c0.047-0.055,0.11-0.087,0.14-0.153c0.061-0.129,1.53-3.174,6.695-3.174
		c5.166,0,6.636,3.045,6.69,3.167c0.032,0.07,0.098,0.107,0.144,0.166c0.044,0.059,0.076,0.104,0.129,0.151
		c0.154,0.132,0.326,0.209,0.521,0.215c0.021,0,0.034,0.024,0.059,0.024c0.006,0,0.008-0.007,0.014-0.007l0.006,0.004
		c0.221-0.006,0.41-0.104,0.569-0.242c0.053-0.043,0.076-0.096,0.118-0.149c0.055-0.068,0.126-0.121,0.162-0.206
		c0.049-0.128,1.268-3.123,5.255-3.123c3.967,0,5.086,2.976,5.129,3.095c0.03,0.081,0.105,0.122,0.151,0.188
		c0.057,0.078,0.094,0.149,0.17,0.207c0.146,0.11,0.305,0.172,0.474,0.197c0.032,0.004,0.052,0.036,0.084,0.036
		c0.006,0,0.006-0.007,0.011-0.007c0.004,0,0.007,0.004,0.011,0.004c0.226-0.006,0.421-0.104,0.584-0.247
		c0.052-0.048,0.069-0.108,0.114-0.167c0.061-0.081,0.142-0.147,0.174-0.252c0.038-0.126,0.945-3.055,3.731-3.055
		c2.772,0,3.624,2.915,3.659,3.038c0.11,0.408,0.482,0.686,0.896,0.686c0.005,0,0.012,0,0.021,0
		c0.518-0.041,0.948-0.414,0.948-0.932C59.588,33.414,59.573,33.327,59.55,33.242z M5.467,28.853c-1.438,0-2.566,0.523-3.417,1.244
		C3.32,19.685,10.353,11.029,19.852,7.411C14.07,12.018,9.969,20.517,9.265,30.453C8.364,29.56,7.119,28.853,5.467,28.853z
		 M16.098,28.853c-2.318,0-3.907,0.793-4.971,1.701c0.873-12.303,7.132-22.233,15.189-24.476
		c-3.007,4.427-4.724,14.502-4.985,24.665C20.242,29.76,18.576,28.853,16.098,28.853z M29.765,28.853
		c-3.223,0-5.291,1.027-6.573,2.076c0.357-15.764,3.952-25.345,6.573-25.345c2.621,0,6.216,9.581,6.574,25.345
		C35.055,29.88,32.987,28.853,29.765,28.853z M43.432,28.853c-2.478,0-4.145,0.907-5.231,1.891
		c-0.262-10.163-1.979-20.238-4.986-24.665c8.058,2.243,14.318,12.172,15.19,24.476C47.339,29.646,45.75,28.853,43.432,28.853z
		 M54.064,28.853c-1.651,0-2.896,0.707-3.799,1.6c-0.703-9.936-4.806-18.435-10.589-23.042c9.501,3.618,16.534,12.274,17.806,22.687
		C56.63,29.376,55.501,28.853,54.064,28.853z"/>
</g>
</svg>
