<?xml version="1.0" encoding="utf-8"?>
<!-- Generator: Adobe Illustrator 16.0.0, SVG Export Plug-In . SVG Version: 6.00 Build 0)  -->
<!DOCTYPE svg PUBLIC "-//W3C//DTD SVG 1.1//EN" "http://www.w3.org/Graphics/SVG/1.1/DTD/svg11.dtd">
<svg version="1.1" id="Layer_1" xmlns="http://www.w3.org/2000/svg" xmlns:xlink="http://www.w3.org/1999/xlink" x="0px" y="0px"
	 width="" height="" viewBox="0 0 56.376 51.993" enable-background="new 0 0 56.376 51.993" xml:space="preserve">
<g>
	<path fill="#FF5300" d="M6.441,13h39.328c0.414,0,0.816-0.042,1.209-0.117h2.957c3.557,0,6.441-2.883,6.441-6.441
		S53.491,0,49.933,0H10.607c-0.414,0-0.816,0.042-1.208,0.117H6.441C2.884,0.117,0,3.001,0,6.559C0,10.116,2.884,13,6.441,13z"/>
	<path fill="#FF5300" d="M49.933,19.496H10.607c-0.414,0-0.816,0.043-1.208,0.117H6.441C2.884,19.613,0,22.498,0,26.055
		s2.884,6.441,6.441,6.441h39.328c0.413,0,0.816-0.043,1.208-0.117h2.958c3.557,0,6.441-2.884,6.441-6.441
		C56.376,22.381,53.491,19.496,49.933,19.496z"/>
	<path fill="#FF5300" d="M49.933,38.993H10.607c-0.414,0-0.816,0.043-1.208,0.117H6.441C2.884,39.11,0,41.995,0,45.551
		c0,3.558,2.884,6.441,6.441,6.441h39.328c0.414,0,0.816-0.043,1.209-0.117h2.957c3.557,0,6.441-2.883,6.441-6.441
		C56.376,41.877,53.491,38.992,49.933,38.993z"/>
</g>
</svg>
