<?xml version="1.0" encoding="utf-8"?>
<!-- Generator: Adobe Illustrator 16.0.0, SVG Export Plug-In . SVG Version: 6.00 Build 0)  -->
<!DOCTYPE svg PUBLIC "-//W3C//DTD SVG 1.1//EN" "http://www.w3.org/Graphics/SVG/1.1/DTD/svg11.dtd">
<svg version="1.1" id="Layer_1" xmlns="http://www.w3.org/2000/svg" xmlns:xlink="http://www.w3.org/1999/xlink" x="0px" y="0px"
	 width="59.588px" height="59.58px" viewBox="0 0 59.588 59.58" enable-background="new 0 0 59.588 59.58" xml:space="preserve">
<g id="presentation_1_">
	<path fill="#FF5300" d="M47.469,18.612c0.514,0,0.93-0.416,0.93-0.931c0-6.672-5.428-12.1-12.099-12.1
		c-0.516,0-0.932,0.416-0.932,0.931v11.169c0,0.515,0.416,0.931,0.932,0.931H47.469z M37.229,7.486
		c4.904,0.442,8.821,4.36,9.268,9.264h-9.268V7.486z"/>
	<path fill="#FF5300" d="M58.638-0.003H10.549c-0.515,0-0.931,0.416-0.931,0.931V3.72h1.861V1.858h46.226v35.368H19.545v1.862
		h39.093c0.514,0,0.93-0.417,0.93-0.931V0.928C59.567,0.413,59.151-0.003,58.638-0.003z"/>
	<path fill="#FF5300" d="M32.577,9.304c-4.638,0-8.628,2.653-10.658,6.493l2.263-0.195c1.684-2.426,4.363-4.113,7.464-4.392v3.749
		l0.692-0.058c0.401-0.033,0.8,0.025,1.169,0.156v-4.822C33.507,9.72,33.091,9.304,32.577,9.304z"/>
	<path fill="#FF5300" d="M32.577,31.642c-3.64,0-6.819-1.92-8.634-4.788l-1.82,0.535c2.091,3.633,5.968,6.114,10.455,6.114
		c6.671,0,12.099-5.427,12.099-12.099c0-0.515-0.416-0.931-0.931-0.931h-8.377v0.931c0,0.325-0.061,0.637-0.167,0.931h7.572
		C42.303,27.547,37.907,31.642,32.577,31.642z"/>
	<path fill="#FF5300" d="M33.507,21.404v-3.723c0-0.259-0.109-0.509-0.303-0.684c-0.192-0.177-0.451-0.273-0.71-0.245l-18.37,1.583
		c-0.166,0.015-0.326,0.076-0.46,0.172c-1.85,1.323-4.389,1.32-6.241,0.002c-0.286-0.206-0.669-0.232-0.978-0.063l-3.211,1.719
		C0.375,21.904,0.017,26.721,0,26.988v11.169c0,0.514,0.416,0.931,0.931,0.931h3.723v19.545c0,0.517,0.416,0.93,0.931,0.93h5.584
		h5.584c0.515,0,0.931-0.413,0.931-0.93V26.756l15.154-4.459C33.233,22.181,33.507,21.817,33.507,21.404z M31.646,20.709
		l-15.154,4.456c-0.396,0.116-0.669,0.479-0.669,0.893v31.647h-3.723v-23.27c0-0.515-0.415-0.932-0.931-0.932
		c-0.515,0-0.93,0.417-0.93,0.932v23.27H6.515V26.058c0-0.515-0.416-0.931-0.931-0.931s-0.931,0.416-0.931,0.931v11.168H1.861
		L1.858,27.052c0.081-1.123,0.657-4.27,2.297-5.273l2.683-1.431c2.346,1.408,5.4,1.347,7.693-0.178l17.114-1.475V20.709z"/>
	<path fill="#FF5300" d="M6.402,14.275c0.46,2.006,2.167,3.406,4.147,3.406c1.975,0,3.68-1.405,4.147-3.429
		c0.006-0.023,0.524-2.415,0.584-3.153c0.056-1.015,0.059-1.418-0.043-2.135c-0.259-1.928-2.274-3.383-4.688-3.383
		s-4.433,1.452-4.698,3.38c-0.093,0.722-0.09,1.129-0.032,2.193C5.873,11.777,6.314,13.879,6.402,14.275z M7.699,9.208
		c0.137-0.989,1.388-1.766,2.851-1.766c1.46,0,2.711,0.777,2.847,1.775c0.076,0.552,0.079,0.817,0.029,1.75
		c-0.035,0.396-0.343,1.96-0.544,2.876c-0.271,1.164-1.228,1.976-2.333,1.976c-1.108,0-2.068-0.806-2.33-1.952
		c-0.165-0.759-0.509-2.467-0.543-2.844C7.623,10.037,7.626,9.764,7.699,9.208z"/>
</g>
</svg>
