<?xml version="1.0" encoding="utf-8"?>
<!-- Generator: Adobe Illustrator 16.0.0, SVG Export Plug-In . SVG Version: 6.00 Build 0)  -->
<!DOCTYPE svg PUBLIC "-//W3C//DTD SVG 1.1//EN" "http://www.w3.org/Graphics/SVG/1.1/DTD/svg11.dtd">
<svg version="1.1" id="Layer_1" xmlns="http://www.w3.org/2000/svg" xmlns:xlink="http://www.w3.org/1999/xlink" x="0px" y="0px"
	 width="59.797px" height="59.813px" viewBox="0 0 59.797 59.813" enable-background="new 0 0 59.797 59.813" xml:space="preserve">
<g id="solution">
	<path fill="#FF5300" d="M58.869,0.015H29.911H0.953c-0.517,0-0.934,0.417-0.934,0.934v28.958v28.958
		c0,0.518,0.417,0.935,0.934,0.935h28.958h28.958c0.518,0,0.934-0.417,0.934-0.935V29.907V0.949
		C59.803,0.432,59.387,0.015,58.869,0.015z M57.934,28.973H47.569c-0.411,0-0.776,0.271-0.893,0.663
		c-0.119,0.397,0.035,0.823,0.376,1.051c1.276,0.843,2.01,2.266,2.01,3.891c0,2.578-2.097,4.671-4.672,4.671
		c-2.578,0-4.672-2.093-4.672-4.671c0-1.625,0.73-3.048,2.006-3.891c0.345-0.228,0.496-0.654,0.38-1.051
		c-0.12-0.392-0.484-0.663-0.896-0.663H30.845v-8.127c1.069,0.721,2.365,1.121,3.737,1.121c3.604,0,6.538-2.934,6.538-6.539
		c0-3.605-2.934-6.54-6.538-6.54c-1.372,0-2.668,0.4-3.737,1.121V1.882h27.088V28.973z M28.977,1.882v10.366
		c0,0.412,0.269,0.773,0.663,0.894c0.397,0.12,0.82-0.038,1.051-0.379c0.844-1.273,2.259-2.006,3.892-2.006
		c2.574,0,4.671,2.094,4.671,4.671c0,2.574-2.097,4.67-4.671,4.67c-1.633,0-3.048-0.733-3.892-2.006
		c-0.23-0.344-0.651-0.496-1.051-0.379c-0.394,0.12-0.663,0.481-0.663,0.893v10.366H20.85c0.722-1.068,1.122-2.368,1.122-3.737
		c0-3.605-2.934-6.539-6.539-6.539c-3.605,0-6.539,2.934-6.539,6.539c0,1.369,0.399,2.668,1.118,3.737H1.887V1.882H28.977z
		 M1.887,30.841H12.25c0.412,0,0.777-0.271,0.896-0.663c0.116-0.396-0.035-0.823-0.38-1.051c-1.275-0.843-2.005-2.265-2.005-3.891
		c0-2.578,2.093-4.67,4.67-4.67c2.575,0,4.67,2.093,4.67,4.67c0,1.625-0.732,3.047-2.008,3.891
		c-0.341,0.228-0.496,0.654-0.376,1.051c0.117,0.392,0.481,0.663,0.893,0.663h10.366v8.127c-1.071-0.721-2.367-1.121-3.737-1.121
		c-3.604,0-6.539,2.934-6.539,6.539s2.934,6.538,6.539,6.538c1.37,0,2.666-0.398,3.737-1.121v8.128H1.887V30.841z M30.845,57.931
		V47.565c0-0.411-0.271-0.774-0.665-0.895c-0.4-0.119-0.82,0.032-1.048,0.38c-0.847,1.272-2.263,2.006-3.892,2.006
		c-2.578,0-4.67-2.094-4.67-4.671s2.093-4.671,4.67-4.671c1.629,0,3.045,0.733,3.892,2.006c0.228,0.348,0.654,0.502,1.048,0.379
		c0.394-0.119,0.665-0.481,0.665-0.893V30.841h8.125c-0.718,1.068-1.118,2.368-1.118,3.736c0,3.605,2.934,6.539,6.539,6.539
		s6.538-2.934,6.538-6.539c0-1.368-0.4-2.668-1.12-3.736h8.125v27.09H30.845z"/>
</g>
</svg>
