<?xml version="1.0" encoding="utf-8"?>
<!-- Generator: Adobe Illustrator 16.0.0, SVG Export Plug-In . SVG Version: 6.00 Build 0)  -->
<!DOCTYPE svg PUBLIC "-//W3C//DTD SVG 1.1//EN" "http://www.w3.org/Graphics/SVG/1.1/DTD/svg11.dtd">
<svg version="1.1" id="Layer_1" xmlns="http://www.w3.org/2000/svg" xmlns:xlink="http://www.w3.org/1999/xlink" x="0px" y="0px"
	 width="59.797px" height="59.813px" viewBox="0 0 59.797 59.813" enable-background="new 0 0 59.797 59.813" xml:space="preserve">
<g id="network">
	<path fill="#FF5300" d="M53.527,23.59l-2.453-5.914c-0.535,0.321-1.117,0.561-1.726,0.715l2.453,5.92
		C52.332,23.993,52.908,23.748,53.527,23.59z"/>
	<path fill="#FF5300" d="M24.312,8.013c-0.315-0.531-0.561-1.109-0.718-1.722L17.677,8.74c0.321,0.541,0.563,1.119,0.715,1.729
		L24.312,8.013z"/>
	<polygon fill="#FF5300" points="24.464,20.274 22.736,19.561 20.473,25.026 21.334,27.104 21.636,27.104 	"/>
	<polygon fill="#FF5300" points="44.21,36.866 40.011,26.695 37.574,25.688 42.782,38.294 	"/>
	<path fill="#FF5300" d="M15.4,42.159l3.051-7.369l-1.01-2.44l-3.777,9.123C14.271,41.616,14.854,41.847,15.4,42.159z"/>
	<path fill="#FF5300" d="M17.677,51.07l5.917,2.452c0.158-0.613,0.403-1.19,0.718-1.722l-5.926-2.455
		C18.234,49.946,18.001,50.525,17.677,51.07z"/>
	<path fill="#FF5300" d="M42.143,8.74l-5.917-2.449c-0.155,0.613-0.4,1.191-0.718,1.722l5.919,2.456
		C41.581,9.858,41.82,9.28,42.143,8.74z"/>
	<path fill="#FF5300" d="M10.49,41.473l-2.472-5.97c-0.531,0.318-1.109,0.563-1.722,0.721l2.458,5.936
		C9.296,41.843,9.88,41.616,10.49,41.473z"/>
	<path fill="#FF5300" d="M10.47,18.391c-0.607-0.154-1.186-0.394-1.725-0.715L6.295,23.59c0.613,0.158,1.191,0.403,1.722,0.721
		L10.47,18.391z"/>
	<path fill="#FF5300" d="M40.928,40.147l-5.902-6.215c-0.392,0.493-0.835,0.937-1.349,1.299l5.929,6.238L40.928,40.147z"/>
	<path fill="#FF5300" d="M23.372,29.907c0-0.321,0.046-0.627,0.093-0.934H11.132c0.044,0.306,0.096,0.612,0.096,0.934
		s-0.052,0.627-0.096,0.934h12.333C23.418,30.534,23.372,30.228,23.372,29.907z"/>
	<path fill="#FF5300" d="M49.532,26.582l-8.729-3.605l-1.434,1.431l9.444,3.9C48.97,27.691,49.214,27.116,49.532,26.582z"/>
	<path fill="#FF5300" d="M49.33,41.473c0.605,0.144,1.189,0.374,1.739,0.687l2.458-5.936c-0.619-0.157-1.195-0.402-1.726-0.721
		L49.33,41.473z"/>
	<path fill="#FF5300" d="M28.306,11.002c-0.616-0.158-1.191-0.403-1.722-0.721l-1.7,4.098l1.729,0.712L28.306,11.002z"/>
	<path fill="#FF5300" d="M31.508,11.002l3.045,7.371l2.072,0.855l0.214-0.213l-3.605-8.731
		C32.701,10.602,32.124,10.848,31.508,11.002z"/>
	<path fill="#FF5300" d="M28.977,36.353v12.331c0.306-0.045,0.613-0.094,0.934-0.094c0.319,0,0.625,0.049,0.935,0.094V36.353
		c-0.31,0.044-0.616,0.093-0.935,0.093C29.59,36.445,29.283,36.396,28.977,36.353z"/>
	<path fill="#FF5300" d="M27.109,49.246v-3.321l-5.477-13.216h-2.02l6.968,16.823C26.752,49.43,26.927,49.331,27.109,49.246z"/>
	<path fill="#FF5300" d="M35.504,51.798c0.321,0.534,0.566,1.111,0.722,1.729l5.917-2.453c-0.324-0.548-0.562-1.127-0.713-1.731
		L35.504,51.798z"/>
	<path fill="#FF5300" d="M35.128,26.01l8.72-8.717c-0.252-0.189-0.504-0.373-0.728-0.598c-0.225-0.225-0.408-0.476-0.595-0.725
		l-8.717,8.717C34.308,25.064,34.751,25.507,35.128,26.01z"/>
	<path fill="#FF5300" d="M8.773,44.438c-1.821,1.821-1.821,4.784,0,6.606c0.882,0.882,2.055,1.365,3.301,1.365
		c1.25,0,2.42-0.483,3.305-1.365c1.819-1.822,1.819-4.785,0-6.606C13.613,42.672,10.537,42.672,8.773,44.438z M14.058,49.722
		c-1.06,1.061-2.905,1.061-3.962,0c-1.094-1.091-1.094-2.869,0-3.961c0.525-0.531,1.232-0.823,1.979-0.823
		c0.748,0,1.454,0.292,1.983,0.823C15.149,46.853,15.149,48.631,14.058,49.722z"/>
	<path fill="#FF5300" d="M47.745,16.744c1.247,0,2.418-0.487,3.3-1.369s1.371-2.055,1.371-3.302c0-1.249-0.489-2.422-1.371-3.304
		c-1.761-1.766-4.839-1.766-6.603,0c-0.882,0.882-1.369,2.056-1.369,3.304c0,1.247,0.487,2.417,1.369,3.302
		C45.324,16.257,46.498,16.744,47.745,16.744z M45.763,10.091c0.529-0.528,1.235-0.82,1.982-0.82c0.749,0,1.449,0.292,1.982,0.82
		c0.527,0.528,0.819,1.232,0.819,1.982c0,0.748-0.292,1.451-0.819,1.979c-1.061,1.06-2.908,1.06-3.965,0
		c-0.528-0.528-0.82-1.232-0.82-1.979C44.942,11.324,45.234,10.62,45.763,10.091z"/>
	<path fill="#FF5300" d="M9.36,29.907c0-2.575-2.096-4.67-4.671-4.67c-2.574,0-4.67,2.096-4.67,4.67s2.096,4.67,4.67,4.67
		C7.264,34.577,9.36,32.481,9.36,29.907z M4.689,32.709c-1.547,0-2.802-1.258-2.802-2.802s1.255-2.802,2.802-2.802
		c1.544,0,2.803,1.258,2.803,2.802S6.234,32.709,4.689,32.709z"/>
	<path fill="#FF5300" d="M34.582,29.907c0-2.575-2.097-4.67-4.671-4.67c-2.574,0-4.67,2.096-4.67,4.67s2.096,4.67,4.67,4.67
		C32.485,34.577,34.582,32.481,34.582,29.907z M29.911,32.709c-1.547,0-2.802-1.258-2.802-2.802s1.255-2.802,2.802-2.802
		c1.544,0,2.803,1.258,2.803,2.802S31.455,32.709,29.911,32.709z"/>
	<path fill="#FF5300" d="M35.194,20.659L18.38,13.714c-0.158,0.611-0.397,1.188-0.724,1.726l16.105,6.652L35.194,20.659z"/>
	<path fill="#FF5300" d="M15.409,17.676c-0.54,0.321-1.118,0.561-1.728,0.715l3.611,8.714h2.023L15.409,17.676z"/>
	<path fill="#FF5300" d="M55.132,25.236c-2.575,0-4.669,2.096-4.669,4.67s2.094,4.67,4.669,4.67s4.671-2.096,4.671-4.67
		S57.707,25.236,55.132,25.236z M55.132,32.709c-1.548,0-2.803-1.258-2.803-2.802s1.255-2.802,2.803-2.802
		c1.544,0,2.802,1.258,2.802,2.802S56.676,32.709,55.132,32.709z"/>
	<path fill="#FF5300" d="M12.075,16.744c1.25,0,2.42-0.487,3.305-1.369c0.882-0.882,1.367-2.055,1.367-3.302
		c0-1.249-0.485-2.422-1.367-3.304c-1.766-1.766-4.843-1.766-6.606,0c-0.884,0.882-1.369,2.056-1.369,3.304
		c0,1.247,0.485,2.42,1.369,3.302C9.655,16.257,10.829,16.744,12.075,16.744z M10.096,10.091c0.525-0.528,1.232-0.82,1.979-0.82
		c0.748,0,1.454,0.292,1.983,0.82c0.528,0.528,0.82,1.232,0.82,1.982c0,0.748-0.292,1.451-0.82,1.979c-1.06,1.06-2.905,1.06-3.962,0
		c-0.531-0.528-0.823-1.232-0.823-1.979C9.272,11.324,9.565,10.62,10.096,10.091z"/>
	<path fill="#FF5300" d="M44.442,44.438c-1.821,1.821-1.821,4.784,0,6.606c0.882,0.882,2.056,1.365,3.303,1.365
		s2.418-0.483,3.3-1.365c1.823-1.822,1.823-4.785,0-6.606C49.284,42.672,46.206,42.672,44.442,44.438z M49.728,49.722
		c-1.061,1.061-2.908,1.061-3.965,0c-1.093-1.091-1.093-2.869,0-3.961c0.529-0.531,1.23-0.823,1.982-0.823
		c0.746,0,1.449,0.292,1.982,0.823C50.817,46.853,50.817,48.631,49.728,49.722z"/>
	<path fill="#FF5300" d="M29.911,9.356c2.575,0,4.671-2.096,4.671-4.67c0-2.575-2.097-4.671-4.671-4.671
		c-2.574,0-4.67,2.096-4.67,4.671C25.24,7.26,27.336,9.356,29.911,9.356z M29.911,1.882c1.544,0,2.803,1.259,2.803,2.803
		s-1.259,2.802-2.803,2.802c-1.547,0-2.802-1.257-2.802-2.802S28.364,1.882,29.911,1.882z"/>
	<path fill="#FF5300" d="M29.911,50.458c-2.574,0-4.67,2.096-4.67,4.671c0,2.573,2.096,4.67,4.67,4.67
		c2.575,0,4.671-2.097,4.671-4.67C34.582,52.554,32.485,50.458,29.911,50.458z M29.911,57.931c-1.547,0-2.802-1.259-2.802-2.802
		c0-1.545,1.255-2.804,2.802-2.804c1.544,0,2.803,1.259,2.803,2.804C32.714,56.672,31.455,57.931,29.911,57.931z"/>
	<path fill="#FF5300" d="M49.914,33.804L33.809,49.908c0.499,0.378,0.942,0.821,1.319,1.323l16.106-16.105
		C50.73,34.75,50.287,34.306,49.914,33.804z"/>
</g>
</svg>
