<?xml version="1.0" encoding="utf-8"?>
<!-- Generator: Adobe Illustrator 16.0.0, SVG Export Plug-In . SVG Version: 6.00 Build 0)  -->
<!DOCTYPE svg PUBLIC "-//W3C//DTD SVG 1.1//EN" "http://www.w3.org/Graphics/SVG/1.1/DTD/svg11.dtd">
<svg version="1.1" id="Layer_1" xmlns="http://www.w3.org/2000/svg" xmlns:xlink="http://www.w3.org/1999/xlink" x="0px" y="0px"
	 width="59.588px" height="59.58px" viewBox="0 0 59.588 59.58" enable-background="new 0 0 59.588 59.58" xml:space="preserve">
<g id="audit">
	<path fill="#FF5300" d="M8.365,14.875h4.654c0.518,0,0.931-0.419,0.931-0.931c0-0.518-0.413-0.931-0.931-0.931H8.365
		c-0.512,0-0.931,0.413-0.931,0.931C7.434,14.456,7.853,14.875,8.365,14.875z"/>
	<path fill="#FF5300" d="M8.365,9.29h12.1c0.518,0,0.931-0.419,0.931-0.931c0-0.518-0.413-0.931-0.931-0.931h-12.1
		c-0.512,0-0.931,0.413-0.931,0.931C7.434,8.871,7.853,9.29,8.365,9.29z"/>
	<path fill="#FF5300" d="M40.941,56.662v1.027H1.85V1.844h25.625v12.53c0,0.518,0.418,0.931,0.931,0.931h12.536v11.762
		c0.313-0.021,0.611-0.093,0.931-0.093c0.318,0,0.622,0.07,0.932,0.091V14.374c0-0.244-0.101-0.483-0.274-0.657L29.068,0.25
		c-0.175-0.175-0.413-0.269-0.663-0.269H0.919c-0.512,0-0.931,0.414-0.931,0.931V58.62c0,0.511,0.418,0.931,0.931,0.931h40.953
		c0.518,0,0.932-0.42,0.932-0.931v-1.955c-0.315,0.021-0.613,0.093-0.932,0.093C41.553,56.757,41.255,56.682,40.941,56.662z
		 M29.336,3.158l10.29,10.285h-10.29V3.158z"/>
	<path fill="#FF5300" d="M35.264,35.323c0.022,0.322,0.093,0.629,0.093,0.96c0,0.405-0.087,0.787-0.115,1.186l-1.402-0.215
		c-0.321,0.552-0.577,1.144-0.78,1.762l1.943,0.298c-0.39,1.759-1.14,3.37-2.123,4.811c0.18,0.715,0.447,1.39,0.784,2.029
		c2.187-2.717,3.555-6.123,3.555-9.87c0-0.794-0.122-1.55-0.232-2.306C36.363,34.367,35.782,34.804,35.264,35.323z"/>
	<path fill="#FF5300" d="M33.541,29.527c0.507-0.343,1.077-0.604,1.625-0.884c-2.707-4.857-7.831-8.185-13.771-8.185
		c-8.725,0-15.822,7.097-15.822,15.824c0,8.719,7.097,15.822,15.822,15.822c2.915,0,5.614-0.85,7.964-2.231
		c-0.326-0.51-0.605-1.05-0.873-1.604c-2.077,1.242-4.497,1.972-7.091,1.972c-3.775,0-7.195-1.522-9.714-3.97l10.005-9.007
		l5.817,0.896c0.157-0.611,0.326-1.216,0.559-1.799l-5.735-0.881V22.413C27.16,22.739,31.29,25.537,33.541,29.527z M10.465,44.862
		c-1.868-2.376-3.031-5.332-3.031-8.579c0-3.779,1.524-7.2,3.967-9.716l8.68,9.645L10.465,44.862z M20.464,33.856l-7.65-8.505
		c2.141-1.687,4.765-2.746,7.65-2.938V33.856z"/>
	<path fill="#FF5300" d="M59.307,52.726l-4.148-4.146c-0.284,0.57-0.611,1.125-0.972,1.657l3.147,3.146l-3.944,3.951l-3.153-3.15
		c-0.528,0.363-1.082,0.684-1.656,0.975l4.152,4.146c0.181,0.181,0.418,0.274,0.657,0.274c0.238,0,0.477-0.094,0.658-0.274
		l5.259-5.265C59.673,53.681,59.673,53.091,59.307,52.726z"/>
	<g>
		<path fill="#FF5300" d="M41.878,54.896c-7.185,0-13.025-5.84-13.025-13.023c0-7.18,5.846-13.025,13.025-13.025
			c3.478,0,6.748,1.354,9.208,3.815c2.461,2.461,3.815,5.73,3.815,9.21c0,3.478-1.354,6.746-3.815,9.208
			C48.626,53.542,45.355,54.896,41.878,54.896z M41.878,30.708c-6.154,0-11.164,5.008-11.164,11.164
			c0,6.157,5.003,11.162,11.164,11.162c2.978,0,5.787-1.158,7.894-3.269c2.111-2.109,3.269-4.909,3.269-7.894
			C53.04,35.716,48.032,30.708,41.878,30.708z"/>
	</g>
</g>
</svg>
