<?xml version="1.0" encoding="utf-8"?>
<!-- Generator: Adobe Illustrator 16.0.0, SVG Export Plug-In . SVG Version: 6.00 Build 0)  -->
<!DOCTYPE svg PUBLIC "-//W3C//DTD SVG 1.1//EN" "http://www.w3.org/Graphics/SVG/1.1/DTD/svg11.dtd">
<svg version="1.1" id="Layer_1" xmlns="http://www.w3.org/2000/svg" xmlns:xlink="http://www.w3.org/1999/xlink" x="0px" y="0px"
	 width="59.588px" height="59.58px" viewBox="0 0 59.588 59.58" enable-background="new 0 0 59.588 59.58" xml:space="preserve">
<g id="exchange">
	<path fill="#FF5300" d="M16.753,39.088c0-0.126,0.018-0.248,0.018-0.372C8.278,36.995,1.861,29.469,1.861,20.473
		c0-10.264,8.35-18.615,18.615-18.615c8.996,0,16.521,6.417,18.242,14.909c0.126,0,0.247-0.017,0.372-0.017
		c0.512,0,1.013,0.043,1.519,0.075C38.882,7.271,30.521-0.003,20.477-0.003C9.185-0.003,0,9.182,0,20.473
		C0,30.52,7.277,38.878,16.829,40.607C16.794,40.104,16.753,39.599,16.753,39.088z"/>
	<path fill="#FF5300" d="M20.477,7.442c6.187,0,11.355,4.343,12.681,10.134c0.594-0.166,1.192-0.312,1.807-0.428
		c-1.521-6.611-7.422-11.567-14.487-11.567c-8.211,0-14.892,6.681-14.892,14.892c0,7.064,4.957,12.97,11.567,14.487
		c0.113-0.614,0.265-1.212,0.427-1.81C11.789,31.829,7.446,26.66,7.446,20.473C7.446,13.289,13.292,7.442,20.477,7.442z"/>
	<path fill="#FF5300" d="M20.072,27.434c0.316-0.521,0.654-1.024,1.015-1.512c-0.605-0.161-1.164-0.422-1.611-0.905
		c-0.675-0.721-1.107-1.806-1.303-3.251h4.273c0.166,0,0.3-0.052,0.399-0.154c0.098-0.099,0.148-0.209,0.148-0.329v-0.591h-4.916
		c-0.009-0.104-0.012-0.212-0.012-0.316c0-0.105,0-0.215,0-0.326c0-0.146,0.003-0.292,0.006-0.431
		c0.002-0.14,0.008-0.282,0.017-0.421h5.346c0.165,0,0.299-0.049,0.392-0.151c0.096-0.102,0.143-0.219,0.143-0.344v-0.579h-5.756
		c0.228-1.347,0.675-2.371,1.353-3.071c0.677-0.704,1.527-1.056,2.551-1.056c0.529,0,0.96,0.07,1.3,0.201
		c0.34,0.134,0.619,0.282,0.838,0.442c0.218,0.163,0.389,0.311,0.521,0.442c0.127,0.134,0.256,0.201,0.372,0.201
		c0.099,0,0.177-0.021,0.232-0.07c0.059-0.043,0.114-0.099,0.169-0.16l0.643-0.719c-0.492-0.616-1.071-1.099-1.737-1.451
		c-0.667-0.352-1.472-0.526-2.408-0.526c-0.759,0-1.46,0.134-2.106,0.399c-0.645,0.27-1.216,0.654-1.71,1.154
		c-0.494,0.503-0.911,1.108-1.245,1.82c-0.332,0.713-0.57,1.51-0.709,2.394h-1.548v1.073h1.42c-0.006,0.14-0.009,0.282-0.012,0.428
		c-0.006,0.143-0.006,0.285-0.006,0.425c0,0.11,0,0.221,0,0.326c0,0.104,0.003,0.212,0.011,0.316h-1.414v1.074h1.496
		c0.113,0.919,0.322,1.749,0.625,2.49c0.306,0.739,0.695,1.367,1.175,1.885c0.474,0.514,1.041,0.91,1.696,1.187
		C19.83,27.372,19.956,27.393,20.072,27.434z"/>
	<path fill="#FF5300" d="M39.091,18.612c-11.291,0-20.477,9.185-20.477,20.477c0,11.291,9.186,20.475,20.477,20.475
		c11.291,0,20.477-9.184,20.477-20.475C59.567,27.797,50.382,18.612,39.091,18.612z M39.091,57.705
		c-10.264,0-18.614-8.353-18.614-18.616c0-10.265,8.35-18.615,18.614-18.615c10.265,0,18.615,8.351,18.615,18.615
		C57.706,49.352,49.355,57.705,39.091,57.705z"/>
	<path fill="#FF5300" d="M39.091,24.196c-8.21,0-14.892,6.682-14.892,14.892S30.881,53.98,39.091,53.98
		c8.211,0,14.893-6.682,14.893-14.892S47.302,24.196,39.091,24.196z M39.091,52.119c-7.183,0-13.03-5.847-13.03-13.03
		c0-7.185,5.847-13.031,13.03-13.031c7.185,0,13.031,5.846,13.031,13.031C52.122,46.272,46.275,52.119,39.091,52.119z"/>
	<path fill="#FF5300" d="M42.826,38.925c-0.393-0.288-0.835-0.524-1.326-0.708c-0.489-0.183-0.989-0.35-1.496-0.506l0.349-5.095
		c0.344,0.05,0.65,0.133,0.915,0.247c0.266,0.116,0.5,0.232,0.703,0.349c0.203,0.114,0.378,0.215,0.523,0.306
		c0.145,0.087,0.263,0.132,0.364,0.132c0.184,0,0.342-0.105,0.481-0.318l0.455-0.694c-0.423-0.408-0.898-0.754-1.435-1.042
		c-0.532-0.287-1.167-0.477-1.902-0.565l0.146-2.087h-0.692c-0.154,0-0.279,0.055-0.369,0.161c-0.09,0.101-0.143,0.224-0.16,0.357
		l-0.104,1.537c-0.728,0-1.374,0.121-1.935,0.363c-0.562,0.241-1.034,0.555-1.417,0.933c-0.382,0.381-0.674,0.814-0.872,1.304
		c-0.2,0.49-0.298,0.988-0.298,1.503c0,0.684,0.111,1.251,0.339,1.704c0.227,0.453,0.528,0.832,0.907,1.13
		c0.373,0.3,0.797,0.541,1.271,0.729c0.474,0.187,0.957,0.352,1.445,0.5l-0.386,5.59c-0.479-0.058-0.889-0.165-1.226-0.328
		c-0.343-0.159-0.634-0.329-0.882-0.501c-0.247-0.171-0.45-0.321-0.618-0.456c-0.17-0.134-0.321-0.196-0.455-0.196
		c-0.099,0-0.191,0.022-0.285,0.068c-0.089,0.05-0.162,0.115-0.208,0.192l-0.559,0.861c0.506,0.525,1.104,0.959,1.806,1.299
		c0.697,0.342,1.469,0.55,2.318,0.625l-0.156,2.38h0.693c0.149,0,0.272-0.05,0.365-0.15c0.093-0.102,0.147-0.223,0.162-0.354
		l0.125-1.884c0.753,0,1.422-0.132,2.004-0.396c0.587-0.265,1.083-0.608,1.486-1.033c0.403-0.419,0.71-0.908,0.922-1.466
		c0.209-0.554,0.314-1.151,0.314-1.786c0-0.648-0.122-1.186-0.364-1.618C43.536,39.576,43.218,39.217,42.826,38.925z M38.847,37.332
		c-0.33-0.11-0.634-0.238-0.916-0.378c-0.279-0.14-0.525-0.306-0.735-0.495s-0.376-0.406-0.495-0.657
		c-0.119-0.25-0.181-0.54-0.181-0.878c0-0.288,0.053-0.564,0.157-0.826c0.107-0.264,0.268-0.5,0.482-0.713
		c0.214-0.208,0.486-0.384,0.82-0.523c0.332-0.144,0.728-0.232,1.181-0.276L38.847,37.332z M42.178,42.989
		c-0.119,0.329-0.306,0.614-0.548,0.857c-0.242,0.247-0.538,0.448-0.893,0.605c-0.354,0.159-0.763,0.258-1.216,0.302l0.355-5.241
		c0.346,0.11,0.668,0.233,0.971,0.367c0.303,0.135,0.565,0.29,0.789,0.474s0.401,0.398,0.531,0.651
		c0.129,0.253,0.192,0.556,0.192,0.908C42.36,42.305,42.303,42.663,42.178,42.989z"/>
	<path fill="#FF5300" d="M17.684,50.251c-0.002-0.513-0.418-0.925-0.931-0.925c0,0-0.002,0-0.005,0
		c-0.512,0.003-0.928,0.421-0.925,0.937v0.323c-3.17-2.136-5.863-4.93-7.786-8.253c-0.259-0.444-0.823-0.599-1.271-0.341
		c-0.445,0.26-0.599,0.83-0.337,1.271c2.053,3.556,4.933,6.551,8.324,8.841l-0.191,0.075c-0.483,0.184-0.722,0.721-0.539,1.201
		c0.143,0.372,0.494,0.599,0.87,0.599c0.111,0,0.224-0.02,0.332-0.062l1.873-0.719c0.018-0.004,0.029-0.028,0.046-0.036
		c0.111-0.051,0.195-0.129,0.28-0.22c0.041-0.043,0.087-0.069,0.122-0.118c0.006-0.012,0.018-0.016,0.023-0.027
		c0.021-0.034,0-0.072,0.018-0.106c0.05-0.118,0.11-0.229,0.11-0.364L17.684,50.251z"/>
	<path fill="#FF5300" d="M41.865,9.301c0.007,0.509,0.42,0.922,0.932,0.922c0.002,0,0.007,0,0.009,0
		c0.516-0.005,0.928-0.427,0.921-0.942l-0.002-0.273c3.205,2.15,5.907,4.937,7.807,8.22c0.172,0.296,0.485,0.465,0.805,0.465
		c0.161,0,0.321-0.041,0.466-0.125c0.445-0.259,0.6-0.829,0.338-1.271c-2.036-3.525-4.933-6.515-8.365-8.821l0.241-0.096
		c0.477-0.189,0.712-0.728,0.526-1.207c-0.191-0.48-0.729-0.716-1.207-0.527L42.437,6.39c-0.192,0.075-0.341,0.214-0.442,0.384
		c-0.006,0.008-0.018,0.008-0.023,0.017c-0.018,0.032,0,0.07-0.013,0.102c-0.055,0.119-0.115,0.236-0.112,0.372L41.865,9.301z"/>
</g>
</svg>
