<?xml version="1.0" encoding="utf-8"?>
<!-- Generator: Adobe Illustrator 16.0.0, SVG Export Plug-In . SVG Version: 6.00 Build 0)  -->
<!DOCTYPE svg PUBLIC "-//W3C//DTD SVG 1.1//EN" "http://www.w3.org/Graphics/SVG/1.1/DTD/svg11.dtd">
<svg version="1.1" id="Layer_1" xmlns="http://www.w3.org/2000/svg" xmlns:xlink="http://www.w3.org/1999/xlink" x="0px" y="0px"
	 width="59.797px" height="59.813px" viewBox="0 0 59.797 59.813" enable-background="new 0 0 59.797 59.813" xml:space="preserve">
<g id="mission">
	<path fill="#FF5300" d="M21.506,17.944v-6.72h11.209c0.517,0,0.934-0.417,0.934-0.934V2.817c0-0.517-0.417-0.935-0.934-0.935
		H21.506V0.949c0-0.517-0.418-0.934-0.935-0.934s-0.934,0.417-0.934,0.934v1.868v7.474v7.671c0.28-0.1,0.566-0.193,0.867-0.199
		C20.846,17.751,21.185,17.827,21.506,17.944z M31.78,3.751v5.605H21.506V3.751H31.78z"/>
	<path fill="#FF5300" d="M37.327,36.002l6.744-7.42L58.21,42.71c0.184,0.184,0.422,0.274,0.662,0.274
		c0.235,0,0.477-0.091,0.66-0.274c0.365-0.364,0.365-0.954,0-1.319L44.699,26.57c-0.182-0.181-0.438-0.286-0.682-0.274
		c-0.254,0.005-0.498,0.117-0.671,0.304l-7.346,8.077l-14.77-14.771c-0.182-0.181-0.441-0.263-0.683-0.274
		c-0.254,0.006-0.5,0.117-0.669,0.304L0.262,41.499c-0.347,0.385-0.32,0.972,0.064,1.321c0.38,0.348,0.972,0.322,1.316-0.061
		l18.96-20.843L58.21,59.524c0.184,0.184,0.422,0.274,0.662,0.274c0.235,0,0.477-0.091,0.66-0.274c0.365-0.365,0.365-0.955,0-1.318
		L37.327,36.002z"/>
	<path fill="#FF5300" d="M37.386,53.26H11.23c-1.547,0-2.803-1.258-2.803-2.802c0-1.686,1.644-3.159,3.171-3.813
		c1.871-0.804,4.099-1.542,6.253-2.257c5.969-1.979,11.127-3.689,11.127-7.009c0-3.515-6.413-6.553-9.537-7.826l1.79-1.79
		c0.364-0.365,0.364-0.954,0-1.319c-0.365-0.365-0.958-0.365-1.323,0l-2.802,2.802c-0.225,0.225-0.321,0.552-0.251,0.861
		c0.07,0.313,0.295,0.569,0.593,0.677c4.014,1.457,9.662,4.466,9.662,6.595c0,1.974-5.459,3.783-9.846,5.236
		c-2.192,0.728-4.458,1.481-6.405,2.313c-2.139,0.92-4.3,2.983-4.3,5.529c0,2.577,2.094,4.671,4.671,4.671h26.155
		c0.517,0,0.934-0.418,0.934-0.935S37.902,53.26,37.386,53.26z"/>
</g>
</svg>
