<?xml version="1.0" encoding="utf-8"?>
<!-- Generator: Adobe Illustrator 16.0.0, SVG Export Plug-In . SVG Version: 6.00 Build 0)  -->
<!DOCTYPE svg PUBLIC "-//W3C//DTD SVG 1.1//EN" "http://www.w3.org/Graphics/SVG/1.1/DTD/svg11.dtd">
<svg version="1.1" id="Layer_1" xmlns="http://www.w3.org/2000/svg" xmlns:xlink="http://www.w3.org/1999/xlink" x="0px" y="0px"
	 width="59.797px" height="59.813px" viewBox="0 0 59.797 59.813" enable-background="new 0 0 59.797 59.813" xml:space="preserve">
<g id="donation">
	<path fill="#FF5300" d="M20.103,38.313c-5.92,0-10.742,4.819-10.742,10.743s4.822,10.742,10.742,10.742
		c5.926,0,10.743-4.818,10.743-10.742S26.029,38.313,20.103,38.313z M20.103,57.931c-4.892,0-8.875-3.981-8.875-8.874
		s3.982-8.874,8.875-8.874c4.893,0,8.875,3.981,8.875,8.874S24.996,57.931,20.103,57.931z"/>
	<path fill="#FF5300" d="M20.103,42.08c-3.862,0-7.006,3.144-7.006,7.005c0,3.862,3.144,7.007,7.006,7.007
		c3.865,0,7.006-3.145,7.006-7.007C27.109,45.224,23.968,42.08,20.103,42.08z M20.103,54.223c-2.831,0-5.138-2.303-5.138-5.138
		c0-2.833,2.307-5.138,5.138-5.138c2.834,0,5.138,2.305,5.138,5.138C25.24,51.92,22.937,54.223,20.103,54.223z"/>
	<path fill="#FF5300" d="M21.831,49.138c-0.073-0.096-0.158-0.175-0.251-0.245c-0.099-0.07-0.199-0.131-0.31-0.187
		c-0.111-0.055-0.228-0.103-0.348-0.143c-0.12-0.038-0.239-0.079-0.359-0.114l0.128-1.325c0.082,0.021,0.152,0.05,0.222,0.078
		c0.07,0.03,0.135,0.059,0.193,0.086c0.059,0.022,0.111,0.046,0.164,0.063c0.049,0.018,0.093,0.026,0.134,0.026
		c0.058,0,0.111-0.015,0.158-0.044c0.041-0.028,0.084-0.073,0.128-0.134l0.283-0.418c-0.137-0.125-0.3-0.242-0.493-0.356
		c-0.196-0.11-0.426-0.188-0.695-0.241l0.076-0.733h-0.426c-0.087,0-0.161,0.027-0.216,0.085c-0.053,0.059-0.084,0.119-0.093,0.192
		l-0.042,0.421c-0.289,0-0.543,0.047-0.768,0.146c-0.225,0.094-0.415,0.22-0.569,0.368c-0.151,0.148-0.268,0.317-0.347,0.507
		c-0.079,0.188-0.12,0.38-0.12,0.576c0,0.266,0.047,0.489,0.135,0.668c0.087,0.176,0.204,0.32,0.344,0.438
		c0.141,0.116,0.304,0.204,0.479,0.274c0.175,0.063,0.354,0.129,0.534,0.175l-0.137,1.413c-0.113-0.03-0.213-0.067-0.3-0.113
		c-0.088-0.045-0.166-0.091-0.243-0.139c-0.069-0.046-0.14-0.081-0.204-0.11c-0.058-0.035-0.123-0.046-0.181-0.046
		c-0.059,0-0.111,0.011-0.164,0.04c-0.049,0.025-0.09,0.063-0.123,0.108l-0.356,0.517c0.181,0.169,0.397,0.31,0.66,0.426
		c0.26,0.123,0.534,0.202,0.82,0.252l-0.073,0.767h0.423c0.087,0,0.161-0.025,0.213-0.084c0.055-0.053,0.087-0.117,0.093-0.184
		l0.046-0.468c0.286-0.026,0.543-0.084,0.771-0.187c0.222-0.102,0.408-0.23,0.566-0.392c0.152-0.16,0.272-0.342,0.351-0.552
		c0.079-0.207,0.12-0.429,0.12-0.665c0-0.158-0.021-0.298-0.061-0.421C21.954,49.342,21.9,49.231,21.831,49.138z M19.881,48.225
		c-0.151-0.062-0.274-0.138-0.368-0.23c-0.094-0.091-0.14-0.207-0.14-0.354c0-0.067,0.011-0.128,0.035-0.187
		c0.02-0.059,0.058-0.113,0.105-0.161c0.046-0.046,0.111-0.088,0.192-0.119c0.076-0.032,0.175-0.06,0.286-0.075L19.881,48.225z
		 M20.342,50.737l0.117-1.231c0.151,0.053,0.269,0.128,0.362,0.211c0.09,0.084,0.134,0.197,0.134,0.338
		C20.955,50.44,20.751,50.665,20.342,50.737z"/>
	<path fill="#FF5300" d="M58.869,0.015H47.658c-0.511,0-0.933,0.417-0.933,0.934v0.958c-25.557,0.269-34.89,11.058-35.339,11.601
		L0.176,30.321c-0.099,0.155-0.157,0.335-0.157,0.52V48.59c0,2.06,1.675,3.735,3.736,3.735s3.737-1.676,3.719-3.556l2.72-13.603
		c5.406-3.223,13.896-7.782,16.677-8.051l8.709,5.225l0.84,6.718l-2.942,5.251c-2.522,4.744,0.753,6.951,2.153,7.895l0.281,0.188
		c0.163,0.114,0.351,0.17,0.537,0.17c0.268,0,0.534-0.114,0.719-0.336l8.19-9.85c0.1-0.119,0.17-0.265,0.197-0.42l2.332-12.05h10.98
		c0.52,0,0.934-0.417,0.934-0.934V0.949C59.803,0.432,59.389,0.015,58.869,0.015z M43.769,41.367l-7.494,9.012
		c-1.307-0.917-2.718-2.239-1.155-5.175l3.083-5.501c0.096-0.172,0.134-0.374,0.11-0.571l-0.935-7.474
		c-0.035-0.286-0.198-0.537-0.446-0.683L27.59,25.37c-0.143-0.087-0.313-0.134-0.481-0.134c-3.883,0-16.771,7.665-18.227,8.541
		c-0.228,0.135-0.385,0.359-0.438,0.619L5.624,48.59c0,1.029-0.835,1.868-1.869,1.868c-1.028,0-1.868-0.839-1.868-1.868V31.124
		l10.994-16.496c0.087-0.111,9.242-10.585,33.845-10.854v22.309L43.769,41.367z M57.934,28.039h-9.34V1.882h9.34V28.039z"/>
</g>
</svg>
