<?xml version="1.0" encoding="utf-8"?>
<!-- Generator: Adobe Illustrator 16.0.0, SVG Export Plug-In . SVG Version: 6.00 Build 0)  -->
<!DOCTYPE svg PUBLIC "-//W3C//DTD SVG 1.1//EN" "http://www.w3.org/Graphics/SVG/1.1/DTD/svg11.dtd">
<svg version="1.1" id="Layer_1" xmlns="http://www.w3.org/2000/svg" xmlns:xlink="http://www.w3.org/1999/xlink" x="0px" y="0px"
	 width="59.797px" height="59.813px" viewBox="0 0 59.797 59.813" enable-background="new 0 0 59.797 59.813" xml:space="preserve">
<g id="production">
	<path fill="#FF5300" d="M59.41,15.708c-0.092-0.435-0.473-0.747-0.916-0.747h-1.196c-0.392-1.44-0.965-2.823-1.712-4.125
		l0.844-0.84c0.312-0.316,0.36-0.806,0.119-1.177c-1.469-2.218-3.335-4.084-5.55-5.549c-0.368-0.242-0.86-0.195-1.177,0.12
		l-0.842,0.84c-1.304-0.744-2.686-1.319-4.124-1.713V1.323c0-0.444-0.312-0.827-0.75-0.915c-2.568-0.522-5.274-0.522-7.843,0
		c-0.436,0.088-0.748,0.47-0.748,0.915v1.193c-1.438,0.394-2.822,0.97-4.125,1.713l-0.843-0.84c-0.316-0.315-0.809-0.362-1.177-0.12
		c-2.213,1.465-4.081,3.331-5.547,5.549c-0.245,0.371-0.195,0.861,0.117,1.177l0.844,0.84c-0.747,1.302-1.32,2.685-1.713,4.125
		h-1.194c-0.441,0-0.826,0.313-0.914,0.747c-0.263,1.284-0.394,2.604-0.394,3.923s0.131,2.639,0.394,3.923
		c0.087,0.435,0.473,0.747,0.914,0.747h1.194c0.394,1.439,0.966,2.82,1.713,4.125l-0.844,0.841
		c-0.313,0.312-0.362,0.806-0.117,1.176c1.466,2.215,3.331,4.082,5.547,5.549c0.371,0.242,0.861,0.195,1.177-0.119l0.843-0.845
		c1.3,0.748,2.684,1.32,4.125,1.714v1.194c0,0.443,0.313,0.826,0.748,0.913c1.283,0.264,2.604,0.397,3.923,0.397
		c1.316,0,2.637-0.134,3.92-0.397c0.438-0.087,0.75-0.47,0.75-0.913v-1.194c1.438-0.394,2.823-0.966,4.124-1.714l0.842,0.845
		c0.316,0.314,0.806,0.361,1.179,0.119c2.213-1.468,4.082-3.334,5.548-5.549c0.241-0.371,0.192-0.864-0.119-1.176l-0.844-0.841
		c0.747-1.305,1.32-2.686,1.712-4.125h1.196c0.443,0,0.824-0.313,0.916-0.747c0.26-1.284,0.393-2.604,0.393-3.923
		S59.67,16.992,59.41,15.708z M57.712,22.434h-1.145c-0.433,0-0.813,0.301-0.908,0.727c-0.396,1.737-1.085,3.393-2.042,4.914
		c-0.232,0.368-0.179,0.849,0.132,1.159l0.81,0.806c-1.109,1.526-2.438,2.854-3.966,3.965l-0.809-0.81
		c-0.306-0.31-0.787-0.361-1.157-0.128c-1.518,0.955-3.17,1.641-4.915,2.037c-0.422,0.097-0.722,0.477-0.722,0.911v1.145
		c-1.849,0.295-3.761,0.295-5.605,0v-1.145c0-0.435-0.302-0.814-0.728-0.911c-1.742-0.396-3.396-1.082-4.912-2.037
		c-0.372-0.233-0.851-0.182-1.159,0.128l-0.809,0.81c-1.527-1.11-2.855-2.438-3.961-3.965l0.805-0.806
		c0.31-0.31,0.365-0.791,0.131-1.159c-0.958-1.521-1.643-3.176-2.04-4.914c-0.097-0.426-0.474-0.727-0.911-0.727h-1.144
		c-0.146-0.925-0.219-1.862-0.219-2.802s0.073-1.88,0.219-2.802h1.144c0.438,0,0.814-0.304,0.911-0.727
		c0.397-1.74,1.083-3.392,2.04-4.916c0.234-0.368,0.178-0.85-0.131-1.157l-0.805-0.805c1.106-1.529,2.434-2.858,3.961-3.964
		l0.809,0.809c0.309,0.306,0.787,0.359,1.159,0.128c1.521-0.958,3.175-1.643,4.912-2.041c0.426-0.096,0.728-0.473,0.728-0.91V2.105
		c1.845-0.298,3.757-0.298,5.605,0v1.142c0,0.438,0.3,0.814,0.722,0.91c1.736,0.397,3.392,1.083,4.915,2.041
		c0.37,0.23,0.852,0.178,1.157-0.128l0.809-0.809c1.528,1.106,2.856,2.435,3.966,3.964l-0.81,0.805
		c-0.311,0.307-0.364,0.789-0.132,1.157c0.957,1.523,1.646,3.176,2.042,4.916c0.095,0.423,0.476,0.727,0.908,0.727h1.145
		c0.146,0.922,0.222,1.862,0.222,2.802S57.858,21.508,57.712,22.434z"/>
	<path fill="#FF5300" d="M3.922,25.353L3.846,25.63c-0.111,0.409,0.073,0.841,0.441,1.051c1.258,0.718,2.659,1.104,4.057,1.115
		c0,0,0.003,0,0.009,0c0.423,0,0.794-0.286,0.902-0.695l0.079-0.303c0.674-0.087,1.342-0.269,1.982-0.543l0.219,0.219
		c0.297,0.301,0.765,0.362,1.133,0.146c0.677-0.399,1.231-0.817,1.696-1.278c0.464-0.467,0.873-1.004,1.279-1.696
		c0.215-0.368,0.155-0.832-0.146-1.132l-0.217-0.219c0.275-0.643,0.458-1.305,0.541-1.982l0.304-0.079
		c0.412-0.111,0.698-0.484,0.695-0.911c-0.012-1.395-0.4-2.8-1.116-4.057c-0.209-0.371-0.642-0.549-1.051-0.441l-0.277,0.073
		c-0.213-0.289-0.435-0.549-0.672-0.789c-0.236-0.236-0.496-0.458-0.788-0.671l0.073-0.274c0.111-0.412-0.073-0.846-0.444-1.057
		c-1.273-0.715-2.674-1.101-4.055-1.11c-0.391-0.018-0.8,0.281-0.908,0.689l-0.084,0.31c-0.671,0.087-1.339,0.271-1.976,0.54
		l-0.219-0.218c-0.301-0.301-0.768-0.359-1.135-0.146c-0.689,0.405-1.229,0.814-1.697,1.281c-0.461,0.461-0.881,1.016-1.279,1.693
		c-0.215,0.368-0.154,0.832,0.146,1.136l0.219,0.219c-0.268,0.636-0.452,1.305-0.54,1.976L0.71,18.56
		c-0.412,0.108-0.698,0.481-0.691,0.908c0.009,1.381,0.394,2.782,1.109,4.055c0.21,0.373,0.643,0.554,1.057,0.443l0.277-0.076
		c0.214,0.289,0.436,0.548,0.671,0.788C3.37,24.918,3.632,25.14,3.922,25.353z M2.437,21.963c-0.254-0.586-0.427-1.19-0.502-1.798
		l0.204-0.056c0.397-0.108,0.678-0.464,0.692-0.875c0.023-0.855,0.254-1.693,0.68-2.484c0.195-0.364,0.128-0.812-0.164-1.104
		l-0.154-0.158c0.193-0.271,0.391-0.508,0.601-0.718c0.21-0.21,0.446-0.409,0.721-0.601l0.155,0.155
		c0.289,0.292,0.739,0.353,1.104,0.163c0.792-0.426,1.626-0.656,2.484-0.679c0.411-0.015,0.768-0.295,0.876-0.692l0.055-0.205
		c0.604,0.076,1.215,0.249,1.798,0.502l-0.049,0.184c-0.108,0.397,0.061,0.82,0.411,1.036c0.414,0.257,0.756,0.517,1.034,0.794
		c0.283,0.286,0.543,0.621,0.794,1.033c0.216,0.353,0.642,0.522,1.036,0.415l0.19-0.053c0.25,0.581,0.42,1.188,0.499,1.801
		l-0.196,0.052c-0.403,0.105-0.683,0.461-0.694,0.875c-0.023,0.859-0.254,1.697-0.68,2.49c-0.199,0.362-0.132,0.812,0.16,1.104
		l0.152,0.155c-0.193,0.273-0.392,0.508-0.599,0.718c-0.213,0.213-0.45,0.409-0.722,0.601l-0.155-0.152
		c-0.292-0.295-0.741-0.359-1.106-0.163c-0.788,0.429-1.625,0.657-2.487,0.683C8.164,25,7.805,25.283,7.699,25.683l-0.053,0.195
		c-0.613-0.078-1.217-0.245-1.798-0.501l0.046-0.187c0.108-0.4-0.058-0.82-0.412-1.037c-0.409-0.25-0.744-0.51-1.027-0.793
		c-0.286-0.286-0.545-0.625-0.797-1.033C3.44,21.976,3.017,21.81,2.62,21.914L2.437,21.963z"/>
	<path fill="#FF5300" d="M28.285,46.38l-1.199-0.321c-0.062-0.779-0.208-1.55-0.43-2.306l1.016-0.738
		c0.351-0.255,0.482-0.72,0.313-1.119c-0.776-1.859-2.005-3.547-3.558-4.874c-0.324-0.284-0.806-0.302-1.156-0.047l-1.007,0.732
		c-0.812-0.561-1.685-1.007-2.61-1.331v-1.247c0-0.432-0.297-0.809-0.718-0.907c-2.035-0.482-4.005-0.482-6.037,0
		c-0.42,0.099-0.718,0.476-0.718,0.907v1.247c-0.742,0.26-1.448,0.599-2.119,1.01l-0.966-0.782
		c-0.339-0.274-0.815-0.277-1.159-0.012c-1.603,1.237-2.919,2.857-3.798,4.688c-0.189,0.389-0.084,0.858,0.251,1.13l0.963,0.779
		c-0.26,0.736-0.438,1.501-0.54,2.286l-1.218,0.259c-0.409,0.088-0.715,0.564-0.744,0.979c-0.006,0.023-0.012,0.201-0.012,0.222
		c0,1.94,0.426,3.823,1.27,5.599c0.187,0.389,0.619,0.601,1.04,0.511l1.212-0.26c0.408,0.665,0.89,1.287,1.433,1.859l-0.566,1.115
		c-0.199,0.386-0.105,0.855,0.227,1.135c1.544,1.314,3.404,2.263,5.38,2.739c0.42,0.105,0.855-0.097,1.051-0.484l0.563-1.101
		c0.785,0.105,1.583,0.125,2.347,0.055l0.508,1.142c0.152,0.342,0.49,0.555,0.853,0.555c0.058,0,0.116-0.006,0.172-0.018
		c1.988-0.371,3.897-1.223,5.518-2.464c0.344-0.26,0.461-0.727,0.286-1.12l-0.502-1.131c0.561-0.536,1.068-1.132,1.518-1.789
		l1.214,0.327c0.417,0.114,0.858-0.075,1.063-0.458c0.972-1.796,1.495-3.76,1.553-5.839C28.986,46.875,28.703,46.494,28.285,46.38z
		 M26.111,51.604l-1.139-0.31c-0.405-0.104-0.829,0.064-1.044,0.423c-0.552,0.92-1.235,1.726-2.029,2.389
		c-0.321,0.267-0.423,0.716-0.253,1.099l0.47,1.056c-1.054,0.703-2.195,1.217-3.413,1.527l-0.476-1.071
		c-0.151-0.343-0.49-0.555-0.855-0.555c-0.043,0-0.087,0.003-0.131,0.008c-1.013,0.144-2.081,0.134-3.132-0.07
		c-0.412-0.084-0.827,0.118-1.013,0.491l-0.528,1.03c-1.191-0.373-2.324-0.949-3.329-1.693l0.532-1.045
		c0.189-0.37,0.108-0.822-0.199-1.106c-0.782-0.729-1.428-1.564-1.912-2.484c-0.196-0.365-0.611-0.56-1.022-0.476L5.501,51.06
		c-0.467-1.177-0.732-2.4-0.783-3.652l1.154-0.245c0.408-0.088,0.706-0.436,0.736-0.853c0.069-1.07,0.315-2.099,0.718-3.051
		c0.167-0.383,0.056-0.829-0.269-1.091L6.158,41.44c0.619-1.089,1.418-2.075,2.356-2.904l0.905,0.732
		c0.324,0.263,0.782,0.277,1.124,0.035c0.864-0.607,1.813-1.061,2.826-1.349c0.403-0.114,0.681-0.479,0.681-0.896v-1.167
		c1.264-0.22,2.472-0.22,3.736,0v1.167c0,0.418,0.278,0.785,0.68,0.896c1.17,0.332,2.251,0.884,3.214,1.644
		c0.33,0.26,0.789,0.269,1.13,0.021l0.943-0.687c0.899,0.879,1.65,1.906,2.204,3.019l-0.952,0.692
		c-0.338,0.245-0.473,0.686-0.327,1.079c0.362,0.993,0.558,2.026,0.572,3.077c0.009,0.415,0.29,0.78,0.692,0.889l1.124,0.3
		C26.951,49.256,26.63,50.466,26.111,51.604z"/>
	<path fill="#FF5300" d="M8.417,22.194c0.747,0,1.454-0.292,1.982-0.82c0.529-0.525,0.82-1.229,0.82-1.976
		c0-0.75-0.291-1.454-0.82-1.985c-1.063-1.06-2.907-1.06-3.967,0c-1.092,1.092-1.086,2.87,0.003,3.961
		C6.967,21.903,7.67,22.194,8.417,22.194z M7.754,18.732c0.175-0.175,0.409-0.271,0.66-0.271s0.488,0.099,0.663,0.274
		c0.178,0.175,0.274,0.411,0.274,0.659s-0.097,0.482-0.274,0.66c-0.354,0.35-0.966,0.35-1.32,0
		C7.393,19.689,7.393,19.097,7.754,18.732z"/>
	<path fill="#FF5300" d="M15.908,41.225c-3.092,0-5.605,2.513-5.605,5.604c0,3.089,2.513,5.604,5.605,5.604
		c3.088,0,5.604-2.516,5.604-5.604C21.513,43.737,18.997,41.225,15.908,41.225z M15.908,50.566c-2.061,0-3.737-1.676-3.737-3.737
		c0-2.061,1.676-3.736,3.737-3.736c2.058,0,3.736,1.676,3.736,3.736C19.644,48.891,17.966,50.566,15.908,50.566z"/>
	<path fill="#FF5300" d="M40.187,9.356c-5.666,0-10.276,4.609-10.276,10.275s4.61,10.275,10.276,10.275
		c5.662,0,10.276-4.609,10.276-10.275S45.849,9.356,40.187,9.356z M40.187,28.039c-4.639,0-8.407-3.772-8.407-8.407
		s3.769-8.407,8.407-8.407c4.635,0,8.407,3.772,8.407,8.407S44.821,28.039,40.187,28.039z"/>
</g>
</svg>
