<?xml version="1.0" encoding="utf-8"?>
<!-- Generator: Adobe Illustrator 16.0.0, SVG Export Plug-In . SVG Version: 6.00 Build 0)  -->
<!DOCTYPE svg PUBLIC "-//W3C//DTD SVG 1.1//EN" "http://www.w3.org/Graphics/SVG/1.1/DTD/svg11.dtd">
<svg version="1.1" id="Layer_1" xmlns="http://www.w3.org/2000/svg" xmlns:xlink="http://www.w3.org/1999/xlink" x="0px" y="0px"
	 width="59.797px" height="59.813px" viewBox="0 0 59.797 59.813" enable-background="new 0 0 59.797 59.813" xml:space="preserve">
<g id="increase">
	<path fill="#FF5300" d="M58.829,57.931h-2.721V0.949c0-0.517-0.417-0.934-0.934-0.934H43.964c-0.517,0-0.934,0.417-0.934,0.934
		v56.982h-6.539V20.566c0-0.518-0.418-0.935-0.935-0.935H24.347c-0.517,0-0.934,0.417-0.934,0.935v37.365h-6.539V40.183
		c0-0.517-0.418-0.935-0.935-0.935H4.73c-0.517,0-0.934,0.418-0.934,0.935v17.748H0.994c-0.517,0-0.935,0.417-0.935,0.934
		c0,0.518,0.418,0.935,0.935,0.935H4.73H15.94h8.407h11.209h8.407h11.211h3.654c0.517,0,0.933-0.417,0.933-0.935
		C59.762,58.348,59.346,57.931,58.829,57.931z M5.665,57.931V41.116h9.342v16.814H5.665z M25.282,57.931V21.5h9.341v36.431H25.282z
		 M44.899,57.931V1.882h9.34v56.048H44.899z"/>
	<path fill="#FF5300" d="M4.73,19.631h14.012c0.517,0,0.935-0.417,0.935-0.934V4.686c0-0.517-0.417-0.935-0.935-0.935H4.73
		c-0.517,0-0.934,0.418-0.934,0.935v14.012C3.796,19.214,4.214,19.631,4.73,19.631z M5.665,5.619h12.144v12.144H5.665V5.619z"/>
	<path fill="#FF5300" d="M15.87,8.065c-0.032-0.079-0.105-0.122-0.154-0.19c-0.041-0.052-0.067-0.102-0.12-0.143
		c-0.167-0.143-0.362-0.246-0.589-0.246h-2.803c-0.517,0-0.934,0.418-0.934,0.935s0.417,0.934,0.934,0.934h0.549l-4.945,4.945
		c-0.365,0.365-0.365,0.955,0,1.319c0.182,0.184,0.42,0.274,0.66,0.274c0.239,0,0.479-0.09,0.66-0.274l4.945-4.945v0.549
		c0,0.517,0.418,0.934,0.935,0.934s0.934-0.417,0.934-0.934V8.422c0-0.044-0.041-0.07-0.047-0.111
		C15.884,8.226,15.902,8.145,15.87,8.065z"/>
</g>
</svg>
