<?xml version="1.0" encoding="utf-8"?>
<!-- Generator: Adobe Illustrator 16.0.0, SVG Export Plug-In . SVG Version: 6.00 Build 0)  -->
<!DOCTYPE svg PUBLIC "-//W3C//DTD SVG 1.1//EN" "http://www.w3.org/Graphics/SVG/1.1/DTD/svg11.dtd">
<svg version="1.1" id="Layer_1" xmlns="http://www.w3.org/2000/svg" xmlns:xlink="http://www.w3.org/1999/xlink" x="0px" y="0px"
	 width="206.375px" height="59.982px" viewBox="0 0 206.375 59.982" enable-background="new 0 0 206.375 59.982"
	 xml:space="preserve">
<g>
	<path fill="#FFFFFF" d="M12.833,5.395v49.192c1.7,1.189,3.525,2.212,5.458,3.031V2.363C16.358,3.184,14.534,4.206,12.833,5.395z"/>
	<path fill="#FFFFFF" d="M60,29.991C60,13.535,46.748,0.18,30.333,0v59.982C46.748,59.803,60,46.447,60,29.991z"/>
	<path fill="#FFFFFF" d="M0,29.991c0,8.963,3.935,17.002,10.166,22.499V7.493C3.935,12.99,0,21.029,0,29.991z"/>
	<path fill="#FFFFFF" d="M20.958,1.381v57.222c2.142,0.677,4.388,1.111,6.708,1.29V0.091C25.347,0.27,23.1,0.705,20.958,1.381z"/>
</g>
<g enable-background="new    ">
	<path fill="#D1D3D4" d="M96.641,12.02v17.006h-3.478v-9.78c0-0.226,0.006-0.471,0.018-0.735s0.033-0.533,0.064-0.806l-4.517,8.742
		c-0.14,0.272-0.329,0.479-0.566,0.618c-0.237,0.141-0.508,0.21-0.811,0.21h-0.537c-0.303,0-0.574-0.069-0.811-0.21
		c-0.237-0.14-0.426-0.346-0.566-0.618l-4.517-8.766c0.023,0.28,0.043,0.555,0.059,0.823c0.016,0.268,0.023,0.516,0.023,0.741v9.78
		h-3.479V12.02h3.011c0.171,0,0.321,0.005,0.45,0.012c0.128,0.008,0.243,0.031,0.344,0.07s0.192,0.1,0.274,0.181
		c0.082,0.082,0.161,0.197,0.239,0.345l4.376,8.625c0.156,0.296,0.306,0.604,0.45,0.922c0.144,0.319,0.282,0.646,0.414,0.98
		c0.132-0.342,0.271-0.677,0.415-1.004c0.144-0.326,0.297-0.638,0.461-0.934l4.365-8.59c0.078-0.147,0.157-0.263,0.239-0.345
		c0.082-0.081,0.173-0.142,0.274-0.181c0.101-0.039,0.216-0.063,0.344-0.07c0.128-0.007,0.278-0.012,0.449-0.012H96.641z"/>
	<path fill="#D1D3D4" d="M115.187,29.026h-3.058c-0.343,0-0.619-0.08-0.829-0.239s-0.369-0.363-0.479-0.612l-1.004-2.965h-6.466
		l-1.004,2.965c-0.085,0.218-0.239,0.414-0.461,0.589s-0.496,0.263-0.823,0.263h-3.081l6.583-17.006h4.038L115.187,29.026z
		 M108.919,22.525l-1.576-4.657c-0.116-0.296-0.241-0.644-0.373-1.044c-0.133-0.401-0.265-0.835-0.396-1.302
		c-0.117,0.475-0.241,0.914-0.374,1.318c-0.133,0.405-0.256,0.755-0.373,1.051l-1.564,4.634H108.919z"/>
	<path fill="#D1D3D4" d="M131.375,12.02v17.006h-2.055c-0.304,0-0.559-0.049-0.765-0.146c-0.206-0.098-0.41-0.267-0.612-0.508
		l-8.019-10.143c0.031,0.303,0.053,0.597,0.064,0.881s0.018,0.551,0.018,0.8v9.115h-3.479V12.02h2.078
		c0.171,0,0.314,0.008,0.432,0.023c0.116,0.016,0.222,0.045,0.314,0.088c0.094,0.043,0.184,0.104,0.269,0.181
		c0.086,0.078,0.183,0.184,0.292,0.315l8.089,10.213c-0.039-0.327-0.066-0.645-0.082-0.951c-0.016-0.308-0.023-0.598-0.023-0.87
		V12.02H131.375z"/>
	<path fill="#D1D3D4" d="M157.834,12.02l-5.252,17.006h-3.571l-3.198-10.539c-0.063-0.164-0.121-0.345-0.175-0.543
		c-0.055-0.198-0.109-0.406-0.164-0.625c-0.054,0.219-0.108,0.427-0.163,0.625s-0.112,0.379-0.175,0.543l-3.245,10.539h-3.571
		l-5.252-17.006h3.314c0.343,0,0.628,0.078,0.858,0.233c0.229,0.156,0.379,0.362,0.449,0.619l2.334,8.87
		c0.07,0.28,0.14,0.586,0.21,0.916c0.07,0.331,0.141,0.676,0.21,1.033c0.141-0.731,0.312-1.381,0.514-1.949l2.755-8.87
		c0.069-0.218,0.22-0.414,0.449-0.59c0.229-0.175,0.508-0.263,0.834-0.263h1.168c0.342,0,0.618,0.08,0.828,0.239
		c0.21,0.16,0.369,0.364,0.479,0.613l2.731,8.87c0.202,0.545,0.373,1.163,0.514,1.855c0.062-0.35,0.126-0.679,0.192-0.985
		c0.066-0.308,0.134-0.598,0.204-0.87l2.334-8.87c0.063-0.226,0.211-0.424,0.444-0.596c0.233-0.171,0.513-0.257,0.84-0.257H157.834z
		"/>
	<path fill="#D1D3D4" d="M173.567,29.026h-3.058c-0.343,0-0.619-0.08-0.829-0.239s-0.369-0.363-0.479-0.612l-1.004-2.965h-6.466
		l-1.004,2.965c-0.086,0.218-0.239,0.414-0.461,0.589s-0.496,0.263-0.823,0.263h-3.081l6.583-17.006h4.038L173.567,29.026z
		 M167.3,22.525l-1.576-4.657c-0.116-0.296-0.241-0.644-0.373-1.044c-0.133-0.401-0.265-0.835-0.396-1.302
		c-0.117,0.475-0.241,0.914-0.374,1.318c-0.132,0.405-0.257,0.755-0.373,1.051l-1.564,4.634H167.3z"/>
	<path fill="#D1D3D4" d="M188.822,29.026h-3.572c-0.661,0-1.136-0.249-1.424-0.747l-2.824-4.937
		c-0.133-0.211-0.28-0.364-0.443-0.462c-0.164-0.097-0.397-0.146-0.7-0.146h-1.004v6.291h-3.945V12.02h5.532
		c1.229,0,2.278,0.127,3.146,0.38c0.868,0.253,1.576,0.604,2.124,1.056c0.549,0.452,0.947,0.985,1.196,1.6s0.374,1.284,0.374,2.008
		c0,0.552-0.074,1.073-0.222,1.563c-0.148,0.49-0.366,0.943-0.653,1.359c-0.288,0.417-0.645,0.788-1.068,1.115
		c-0.424,0.326-0.912,0.595-1.465,0.805c0.257,0.133,0.498,0.298,0.724,0.496c0.226,0.199,0.428,0.435,0.607,0.707L188.822,29.026z
		 M180.441,20.015c0.537,0,0.994-0.067,1.372-0.204c0.377-0.136,0.687-0.324,0.928-0.565s0.416-0.523,0.525-0.847
		c0.108-0.323,0.163-0.671,0.163-1.045c0-0.747-0.243-1.33-0.729-1.75c-0.486-0.421-1.239-0.631-2.259-0.631h-1.587v5.042H180.441z"
		/>
	<path fill="#D1D3D4" d="M205.687,20.517c0,1.229-0.212,2.363-0.636,3.402s-1.021,1.938-1.792,2.696
		c-0.77,0.759-1.698,1.35-2.783,1.774c-1.086,0.424-2.29,0.636-3.612,0.636h-6.606V12.02h6.606c1.322,0,2.526,0.215,3.612,0.643
		c1.085,0.428,2.014,1.02,2.783,1.773c0.771,0.755,1.368,1.652,1.792,2.69C205.475,18.166,205.687,19.296,205.687,20.517z
		 M201.648,20.517c0-0.84-0.109-1.599-0.327-2.275c-0.218-0.678-0.53-1.251-0.939-1.722c-0.408-0.471-0.908-0.833-1.5-1.086
		c-0.591-0.253-1.264-0.379-2.019-0.379h-2.638v10.937h2.638c0.755,0,1.428-0.127,2.019-0.38c0.592-0.253,1.092-0.614,1.5-1.085
		c0.409-0.471,0.722-1.045,0.939-1.722S201.648,21.366,201.648,20.517z"/>
</g>
<g enable-background="new    ">
	<path fill="#D1D3D4" d="M88.407,53.026h-0.43c-0.1,0-0.173-0.057-0.22-0.17l-1.83-4.45h-7.22l-1.83,4.45
		c-0.033,0.113-0.11,0.17-0.23,0.17h-0.41l5.82-14.06h0.53L88.407,53.026z M85.747,47.986l-3.22-7.83
		c-0.073-0.18-0.144-0.38-0.21-0.6c-0.06,0.22-0.13,0.42-0.21,0.6l-3.22,7.83H85.747z"/>
	<path fill="#D1D3D4" d="M101.557,38.967v14.06h-0.23c-0.087,0-0.16-0.04-0.22-0.12l-9.65-13.04
		c0.007,0.061,0.012,0.122,0.015,0.186s0.005,0.121,0.005,0.175v12.8h-0.48v-14.06h0.25c0.053,0,0.097,0.008,0.13,0.024
		s0.07,0.052,0.11,0.105l9.61,12.989c-0.007-0.06-0.012-0.119-0.015-0.18c-0.003-0.06-0.005-0.116-0.005-0.17v-12.77H101.557z"/>
	<path fill="#D1D3D4" d="M116.316,53.026h-0.43c-0.1,0-0.174-0.057-0.221-0.17l-1.83-4.45h-7.219l-1.83,4.45
		c-0.033,0.113-0.11,0.17-0.23,0.17h-0.41l5.82-14.06h0.529L116.316,53.026z M113.656,47.986l-3.219-7.83
		c-0.074-0.18-0.145-0.38-0.211-0.6c-0.061,0.22-0.131,0.42-0.209,0.6l-3.221,7.83H113.656z"/>
	<path fill="#D1D3D4" d="M126.426,52.546v0.48h-7.52v-14.06h0.55v13.579H126.426z"/>
	<path fill="#D1D3D4" d="M130.937,47.116v5.91h-0.561v-5.91l-5.22-8.149h0.47c0.061,0,0.107,0.012,0.141,0.034
		c0.033,0.023,0.066,0.063,0.1,0.115l4.45,6.98c0.066,0.113,0.13,0.223,0.19,0.33c0.06,0.106,0.109,0.213,0.149,0.319
		c0.047-0.113,0.099-0.222,0.155-0.325c0.057-0.103,0.118-0.211,0.185-0.324l4.45-6.98c0.054-0.1,0.13-0.149,0.23-0.149h0.479
		L130.937,47.116z"/>
	<path fill="#D1D3D4" d="M147.626,39.446h-5.15v13.58h-0.55v-13.58h-5.18v-0.479h10.88V39.446z"/>
	<path fill="#D1D3D4" d="M150.696,53.026h-0.55v-14.06h0.55V53.026z"/>
	<path fill="#D1D3D4" d="M165.445,50.936c0.027,0,0.063,0.017,0.11,0.05l0.21,0.22c-0.293,0.294-0.609,0.563-0.95,0.806
		c-0.34,0.243-0.713,0.451-1.12,0.625c-0.406,0.173-0.852,0.308-1.335,0.404s-1.015,0.146-1.595,0.146
		c-0.953,0-1.832-0.168-2.635-0.505c-0.804-0.337-1.495-0.816-2.075-1.44c-0.58-0.623-1.033-1.378-1.36-2.265
		c-0.326-0.887-0.489-1.88-0.489-2.98c0-1.073,0.163-2.052,0.489-2.935c0.327-0.884,0.789-1.641,1.386-2.271s1.31-1.118,2.14-1.465
		s1.745-0.52,2.745-0.52c0.94,0,1.773,0.144,2.5,0.43c0.727,0.287,1.403,0.7,2.03,1.24l-0.15,0.22c-0.026,0.047-0.08,0.07-0.16,0.07
		c-0.04,0-0.108-0.037-0.205-0.11s-0.223-0.165-0.38-0.274c-0.156-0.11-0.347-0.23-0.569-0.36c-0.224-0.13-0.485-0.25-0.785-0.36
		c-0.301-0.109-0.641-0.201-1.021-0.274s-0.8-0.11-1.26-0.11c-0.907,0-1.74,0.156-2.5,0.47s-1.413,0.761-1.96,1.34
		c-0.547,0.58-0.972,1.285-1.275,2.115c-0.303,0.83-0.455,1.762-0.455,2.795c0,1.054,0.152,1.995,0.455,2.825
		c0.304,0.83,0.726,1.533,1.266,2.11c0.54,0.576,1.176,1.019,1.91,1.325c0.732,0.307,1.529,0.46,2.39,0.46
		c0.54,0,1.023-0.037,1.45-0.11c0.426-0.073,0.818-0.184,1.175-0.33s0.687-0.326,0.99-0.54c0.303-0.213,0.604-0.456,0.904-0.729
		C165.362,50.96,165.406,50.936,165.445,50.936z"/>
	<path fill="#D1D3D4" d="M175.396,40.427c-0.04,0.066-0.097,0.1-0.17,0.1s-0.175-0.065-0.306-0.195
		c-0.13-0.13-0.312-0.274-0.545-0.435s-0.533-0.305-0.899-0.436c-0.367-0.13-0.82-0.194-1.36-0.194
		c-0.547,0-1.031,0.081-1.455,0.245c-0.423,0.163-0.778,0.385-1.064,0.665c-0.287,0.279-0.504,0.602-0.65,0.965
		s-0.22,0.745-0.22,1.145c0,0.514,0.104,0.942,0.31,1.285c0.207,0.344,0.48,0.632,0.82,0.865s0.725,0.43,1.155,0.59
		c0.43,0.16,0.871,0.315,1.324,0.465c0.454,0.15,0.896,0.311,1.325,0.48c0.431,0.17,0.815,0.385,1.155,0.645s0.613,0.582,0.82,0.965
		c0.206,0.384,0.31,0.858,0.31,1.426c0,0.579-0.099,1.125-0.295,1.635s-0.483,0.953-0.86,1.33c-0.376,0.376-0.836,0.673-1.38,0.89
		c-0.543,0.217-1.161,0.325-1.854,0.325c-0.474,0-0.902-0.042-1.285-0.125c-0.384-0.083-0.737-0.203-1.061-0.36
		c-0.323-0.156-0.619-0.348-0.89-0.575c-0.27-0.227-0.528-0.482-0.775-0.77l0.131-0.2c0.033-0.033,0.062-0.059,0.085-0.075
		c0.022-0.017,0.058-0.024,0.104-0.024s0.111,0.041,0.195,0.125c0.083,0.083,0.191,0.187,0.325,0.31
		c0.133,0.124,0.293,0.257,0.479,0.4s0.408,0.276,0.665,0.399c0.257,0.124,0.554,0.228,0.89,0.311
		c0.337,0.083,0.719,0.125,1.146,0.125c0.606,0,1.15-0.095,1.63-0.285c0.48-0.19,0.885-0.45,1.215-0.78s0.582-0.715,0.755-1.154
		c0.174-0.44,0.261-0.91,0.261-1.41c0-0.533-0.104-0.974-0.311-1.32s-0.479-0.637-0.814-0.87c-0.337-0.233-0.722-0.428-1.155-0.585
		c-0.434-0.156-0.875-0.307-1.325-0.45c-0.45-0.143-0.892-0.3-1.325-0.47s-0.818-0.387-1.154-0.65
		c-0.337-0.263-0.608-0.59-0.815-0.979s-0.31-0.878-0.31-1.465c0-0.46,0.086-0.9,0.26-1.32c0.173-0.42,0.425-0.792,0.755-1.115
		s0.736-0.581,1.22-0.774s1.038-0.29,1.665-0.29c0.707,0,1.332,0.113,1.875,0.34s1.052,0.58,1.525,1.06L175.396,40.427z"/>
</g>
</svg>
